<?xml version="1.0" encoding="utf-8"?>
<!-- Generator: Adobe Illustrator 18.0.0, SVG Export Plug-In . SVG Version: 6.00 Build 0)  -->
<!DOCTYPE svg PUBLIC "-//W3C//DTD SVG 1.1//EN" "http://www.w3.org/Graphics/SVG/1.1/DTD/svg11.dtd">
<svg version="1.1" id="Layer_1" xmlns="http://www.w3.org/2000/svg" xmlns:xlink="http://www.w3.org/1999/xlink" x="0px" y="0px"
	 viewBox="0 0 324.5 54.2" enable-background="new 0 0 324.5 54.2" xml:space="preserve">
<g>
	<path fill="#58595B" d="M0,1h4.9v30.9c0,6.4,1.2,11.1,3.6,13.9c2.4,2.8,6.3,4.2,11.6,4.2c2.8,0,5.1-0.4,7.1-1.1
		c1.9-0.7,3.5-1.9,4.7-3.4c1.2-1.5,2.1-3.4,2.6-5.7c0.5-2.3,0.8-4.9,0.8-8V1h4.9v32.3c0,6.8-1.7,11.9-5,15.5
		c-3.3,3.6-8.4,5.4-15.1,5.4c-6.8,0-11.8-1.8-15.1-5.5C1.7,45.1,0,40,0,33.3V1z"/>
	<path fill="#58595B" d="M55.6,52.8h-4.3V15.6h4.3v5.2c1.7-1.8,3.5-3.3,5.4-4.5c1.8-1.2,4.1-1.7,6.7-1.7c2.3,0,4.4,0.4,6.4,1.2
		c2,0.8,3.6,2.2,5,4.1c0.9,1.3,1.5,2.7,1.6,4.1c0.2,1.4,0.3,2.9,0.3,4.4v24.4h-4.3V28.5c0-3.4-0.7-5.9-2.2-7.6
		c-1.5-1.7-4-2.5-7.4-2.5c-1.3,0-2.6,0.2-3.7,0.6c-1.1,0.4-2.1,0.9-3,1.6c-0.9,0.7-1.6,1.4-2.3,2.3c-0.6,0.9-1.1,1.8-1.4,2.7
		c-0.4,1.2-0.7,2.4-0.8,3.5c-0.1,1.1-0.1,2.3-0.1,3.6V52.8z"/>
	<path fill="#58595B" d="M120.1,1h4.3v51.8h-4.3v-6.6H120c-0.6,1.2-1.4,2.3-2.4,3.3c-1,0.9-2.1,1.7-3.2,2.3
		c-1.2,0.6-2.4,1.1-3.6,1.4c-1.2,0.3-2.5,0.5-3.7,0.5c-3,0-5.6-0.5-7.7-1.5c-2.1-1-3.9-2.4-5.2-4.1c-1.4-1.8-2.4-3.8-3-6.2
		c-0.6-2.4-0.9-5-0.9-7.7c0-2.6,0.3-5.1,1-7.5c0.7-2.4,1.7-4.5,3.1-6.3c1.4-1.8,3.1-3.2,5.2-4.3c2.1-1.1,4.5-1.6,7.4-1.6
		c2.6,0,5.2,0.6,7.6,1.8c2.4,1.2,4.3,2.9,5.7,5.2V1z M120.1,34.1c0-2.1-0.3-4.1-0.9-6c-0.6-1.9-1.4-3.6-2.5-5
		c-1.1-1.4-2.4-2.5-4-3.4c-1.6-0.8-3.3-1.3-5.3-1.3c-2.3,0-4.2,0.4-5.8,1.3c-1.6,0.9-3,2.1-4,3.6c-1.1,1.5-1.8,3.3-2.3,5.4
		c-0.5,2-0.7,4.2-0.6,6.6c0,2.4,0.3,4.4,1,6.2c0.6,1.8,1.5,3.3,2.7,4.6c1.2,1.2,2.5,2.2,4,2.8c1.5,0.6,3.2,1,5,1
		c2,0,3.8-0.4,5.4-1.2c1.6-0.8,2.9-1.9,4-3.3c1.1-1.4,1.9-3.1,2.4-5C119.8,38.4,120.1,36.3,120.1,34.1z"/>
	<path fill="#58595B" d="M138,35.2c0,2,0.3,3.9,0.8,5.7c0.5,1.8,1.3,3.4,2.3,4.7c1,1.3,2.3,2.4,3.9,3.2c1.6,0.8,3.4,1.2,5.5,1.2
		c2.8,0,5.3-0.7,7.3-2.2c2-1.5,3.4-3.6,4-6.3h4.8c-0.5,1.8-1.2,3.4-2.1,4.9c-0.9,1.5-1.9,2.8-3.2,4c-1.3,1.1-2.8,2-4.6,2.6
		c-1.8,0.6-3.8,0.9-6.2,0.9c-3,0-5.5-0.5-7.7-1.5c-2.2-1-3.9-2.4-5.3-4.1c-1.4-1.8-2.4-3.8-3.1-6.2c-0.7-2.4-1-4.9-1-7.7
		c0-2.7,0.4-5.3,1.2-7.7c0.8-2.4,1.9-4.5,3.4-6.3c1.5-1.8,3.3-3.2,5.4-4.2c2.1-1,4.5-1.5,7.2-1.5c5.1,0,9.2,1.8,12.1,5.3
		c2.9,3.5,4.4,8.7,4.3,15.4H138z M162.3,31.6c0-1.8-0.3-3.5-0.8-5.1c-0.5-1.6-1.2-3-2.2-4.2c-1-1.2-2.2-2.1-3.7-2.8
		c-1.5-0.7-3.2-1-5.1-1c-1.9,0-3.6,0.4-5.1,1.1c-1.5,0.7-2.7,1.7-3.7,2.9c-1,1.2-1.9,2.6-2.5,4.2c-0.6,1.6-1,3.3-1.2,5H162.3z"/>
	<path fill="#58595B" d="M171.6,19.2v-3.6h5.5V9.6c0-3,0.6-5.3,1.8-7.1c1.2-1.7,3.2-2.6,6.1-2.6c0.7,0,1.3,0,1.9,0.1
		c0.6,0,1.2,0.1,1.7,0.2v4c-1-0.2-1.8-0.4-2.6-0.4c-1.1,0-2,0.2-2.6,0.6c-0.6,0.4-1.1,0.9-1.4,1.6c-0.3,0.7-0.5,1.4-0.5,2.3
		c-0.1,0.8-0.1,1.7-0.1,2.6v4.6h7.2v3.6h-7.2v33.7h-4.3V19.2H171.6z"/>
	<path fill="#58595B" d="M195.8,7.4V1h4.8v6.4H195.8z M196,52.8V15.6h4.3v37.3H196z"/>
	<path fill="#58595B" d="M215.6,52.8h-4.3V15.6h4.3v5.2c1.7-1.8,3.5-3.3,5.4-4.5c1.8-1.2,4.1-1.7,6.7-1.7c2.3,0,4.4,0.4,6.4,1.2
		s3.6,2.2,5,4.1c0.9,1.3,1.5,2.7,1.6,4.1c0.2,1.4,0.3,2.9,0.3,4.4v24.4h-4.3V28.5c0-3.4-0.7-5.9-2.2-7.6c-1.5-1.7-4-2.5-7.4-2.5
		c-1.3,0-2.6,0.2-3.7,0.6c-1.1,0.4-2.1,0.9-3,1.6c-0.9,0.7-1.6,1.4-2.3,2.3c-0.6,0.9-1.1,1.8-1.4,2.7c-0.4,1.2-0.7,2.4-0.8,3.5
		c-0.1,1.1-0.1,2.3-0.1,3.6V52.8z"/>
	<path fill="#58595B" d="M254,35.2c0,2,0.3,3.9,0.8,5.7s1.3,3.4,2.3,4.7c1,1.3,2.3,2.4,3.9,3.2c1.6,0.8,3.4,1.2,5.5,1.2
		c2.8,0,5.3-0.7,7.3-2.2c2-1.5,3.4-3.6,4-6.3h4.8c-0.5,1.8-1.2,3.4-2.1,4.9c-0.9,1.5-1.9,2.8-3.2,4c-1.3,1.1-2.8,2-4.6,2.6
		c-1.8,0.6-3.8,0.9-6.2,0.9c-3,0-5.5-0.5-7.7-1.5s-3.9-2.4-5.3-4.1c-1.4-1.8-2.4-3.8-3.1-6.2c-0.7-2.4-1-4.9-1-7.7
		c0-2.7,0.4-5.3,1.2-7.7c0.8-2.4,1.9-4.5,3.4-6.3c1.5-1.8,3.3-3.2,5.4-4.2c2.1-1,4.5-1.5,7.2-1.5c5.1,0,9.2,1.8,12.1,5.3
		c2.9,3.5,4.4,8.7,4.3,15.4H254z M278.3,31.6c0-1.8-0.3-3.5-0.8-5.1c-0.5-1.6-1.2-3-2.2-4.2c-1-1.2-2.2-2.1-3.7-2.8
		c-1.5-0.7-3.2-1-5.1-1c-1.9,0-3.6,0.4-5.1,1.1c-1.5,0.7-2.7,1.7-3.7,2.9c-1,1.2-1.9,2.6-2.5,4.2c-0.6,1.6-1,3.3-1.2,5H278.3z"/>
	<path fill="#58595B" d="M320.2,1h4.3v51.8h-4.3v-6.6H320c-0.6,1.2-1.4,2.3-2.4,3.3c-1,0.9-2.1,1.7-3.2,2.3
		c-1.2,0.6-2.4,1.1-3.6,1.4c-1.2,0.3-2.5,0.5-3.7,0.5c-3,0-5.6-0.5-7.7-1.5s-3.9-2.4-5.2-4.1c-1.4-1.8-2.4-3.8-3-6.2
		c-0.6-2.4-0.9-5-0.9-7.7c0-2.6,0.3-5.1,1-7.5c0.7-2.4,1.7-4.5,3.1-6.3c1.4-1.8,3.1-3.2,5.2-4.3s4.5-1.6,7.4-1.6
		c2.6,0,5.2,0.6,7.6,1.8c2.4,1.2,4.3,2.9,5.7,5.2V1z M320.2,34.1c0-2.1-0.3-4.1-0.9-6c-0.6-1.9-1.4-3.6-2.5-5
		c-1.1-1.4-2.4-2.5-4-3.4c-1.6-0.8-3.3-1.3-5.3-1.3c-2.3,0-4.2,0.4-5.8,1.3c-1.6,0.9-3,2.1-4,3.6c-1.1,1.5-1.8,3.3-2.3,5.4
		c-0.5,2-0.7,4.2-0.6,6.6c0,2.4,0.3,4.4,1,6.2c0.6,1.8,1.5,3.3,2.7,4.6c1.2,1.2,2.5,2.2,4,2.8s3.2,1,5,1c2,0,3.8-0.4,5.4-1.2
		c1.6-0.8,2.9-1.9,4-3.3c1.1-1.4,1.9-3.1,2.4-5C319.9,38.4,320.2,36.3,320.2,34.1z"/>
</g>
</svg>
